<?xml version="1.0" standalone="no"?>
<!DOCTYPE svg PUBLIC "-//W3C//DTD SVG 20010904//EN"
 "http://www.w3.org/TR/2001/REC-SVG-20010904/DTD/svg10.dtd">
<svg version="1.0" xmlns="http://www.w3.org/2000/svg"
 width="1200.000000pt" height="1200.000000pt" viewBox="0 0 1200.000000 1200.000000"
 preserveAspectRatio="xMidYMid meet">
<metadata>
Created by potrace 1.13, written by Peter Selinger 2001-2015
</metadata>
<g transform="translate(0.000000,1200.000000) scale(0.100000,-0.100000)"
fill="#000000" stroke="none">
<path d="M5715 11624 c-1194 -66 -2316 -495 -3240 -1237 -255 -205 -586 -529
-784 -767 -747 -897 -1178 -1927 -1298 -3105 -24 -238 -24 -802 0 -1038 110
-1073 471 -2013 1096 -2852 316 -423 737 -843 1161 -1157 832 -616 1779 -978
2835 -1085 238 -24 802 -24 1040 0 1183 119 2250 570 3135 1322 278 237 660
647 877 942 746 1012 1130 2226 1100 3473 -24 966 -270 1850 -750 2690 -366
640 -925 1267 -1527 1712 -835 617 -1785 981 -2825 1083 -153 15 -671 27 -820
19z m805 -63 c566 -59 1046 -174 1549 -374 1651 -654 2901 -2070 3346 -3792
126 -485 170 -851 170 -1400 0 -377 -7 -491 -46 -775 -203 -1469 -993 -2805
-2190 -3702 -569 -427 -1253 -755 -1944 -933 -488 -126 -851 -170 -1400 -170
-377 0 -491 7 -775 46 -1980 274 -3681 1609 -4417 3469 -202 510 -318 994
-375 1565 -17 174 -17 826 0 1000 71 715 244 1331 546 1950 717 1469 2042
2552 3621 2960 294 76 619 132 900 155 72 5 148 12 170 14 80 8 743 -3 845
-13z"/>
<path d="M5672 10013 c-34 -16 -136 -126 -393 -423 -437 -505 -806 -977 -1043
-1333 -95 -144 -112 -164 -118 -145 -7 25 -32 482 -48 903 -6 149 -15 293 -21
322 -13 67 -59 129 -112 154 -52 23 -81 23 -132 0 -79 -36 -108 -80 -269 -401
-353 -707 -649 -1499 -825 -2205 -88 -352 -129 -612 -138 -865 -8 -258 18
-412 84 -491 23 -27 71 -59 90 -59 4 0 6 42 4 92 -4 108 14 338 35 453 102
545 464 1553 822 2289 l107 220 12 -330 c15 -432 40 -634 101 -819 21 -65 35
-89 76 -130 l50 -50 7 60 c14 130 124 328 357 645 120 163 352 450 540 669 17
20 24 39 -96 -259 -174 -429 -292 -784 -377 -1135 -74 -306 -89 -412 -90 -640
0 -242 11 -290 85 -367 67 -69 75 -65 77 40 2 98 34 332 63 464 41 183 177
583 306 902 245 602 614 1327 961 1890 113 183 130 217 143 288 21 105 -30
232 -105 264 -45 19 -112 17 -153 -3z"/>
<path d="M5515 8274 c-49 -17 -70 -38 -101 -100 -21 -43 -25 -62 -19 -91 15
-83 70 -145 149 -168 83 -25 139 3 182 91 22 45 26 63 20 100 -16 123 -127
204 -231 168z"/>
<path d="M6688 7910 c-70 -37 -99 -90 -193 -355 -95 -267 -254 -661 -342 -850
-41 -88 -77 -168 -80 -177 -9 -29 -21 -21 -47 30 -42 83 -57 158 -63 314 -7
170 6 286 48 462 66 269 140 376 220 317 l27 -20 6 22 c9 35 7 103 -5 134 -5
15 -22 41 -37 56 -120 127 -332 65 -428 -125 -57 -113 -124 -449 -124 -624 l0
-85 -61 -105 c-98 -171 -196 -322 -285 -441 -111 -148 -173 -185 -210 -128
-57 87 79 536 340 1121 62 140 76 181 76 222 0 135 -99 244 -193 213 -55 -19
-86 -61 -128 -177 -104 -284 -207 -646 -255 -899 -23 -116 -27 -169 -28 -310
-1 -167 -1 -171 27 -228 52 -105 163 -139 258 -79 98 63 253 252 398 486 l85
136 23 -80 c13 -45 37 -109 54 -143 36 -72 129 -198 170 -230 l29 -22 -56 -85
c-31 -47 -77 -108 -101 -137 -48 -57 -45 -67 22 -65 60 0 134 42 218 121 l72
69 55 -15 c115 -31 282 2 401 78 107 68 272 244 378 404 107 160 275 490 293
577 14 66 2 108 -31 108 -26 0 -49 -34 -111 -170 -202 -437 -433 -742 -637
-841 -53 -26 -156 -37 -210 -22 l-32 8 55 80 c183 264 373 649 542 1095 43
115 55 157 55 205 1 138 -90 210 -195 155z"/>
<path d="M7000 6512 c-54 -29 -557 -605 -871 -997 -257 -321 -476 -619 -615
-838 l-62 -98 -6 53 c-8 67 -32 529 -46 893 -13 319 -22 365 -78 424 -78 81
-170 77 -257 -12 -110 -114 -455 -856 -685 -1472 -292 -785 -461 -1475 -477
-1945 -10 -305 27 -460 126 -527 19 -13 39 -23 45 -23 8 0 11 53 12 168 1 199
14 306 61 511 138 605 500 1579 835 2245 l64 128 12 -333 c13 -349 28 -515 62
-671 34 -157 59 -217 114 -273 l50 -50 7 61 c23 191 254 540 768 1159 140 169
146 176 138 155 -3 -8 -46 -114 -95 -235 -261 -640 -429 -1218 -472 -1622 -17
-153 -9 -361 16 -438 31 -97 158 -211 141 -127 -8 39 10 223 38 387 108 640
694 1964 1305 2950 104 168 117 194 131 269 19 105 -26 221 -101 258 -45 23
-116 23 -160 0z"/>
<path d="M8789 5985 c-105 -38 -202 -124 -290 -258 -252 -381 -619 -1334 -784
-2036 -30 -129 -32 -132 -139 -186 -82 -42 -111 -45 -102 -12 17 62 46 255 47
324 3 91 -12 127 -65 164 -20 13 -36 27 -36 30 0 3 19 15 43 25 91 41 157 137
157 227 -1 49 -34 113 -69 131 -85 44 -411 -16 -616 -114 -197 -94 -383 -250
-507 -425 -118 -166 -212 -463 -212 -670 1 -248 113 -438 293 -495 77 -24 210
-27 296 -5 149 38 310 148 421 288 58 73 194 320 194 351 0 7 26 17 58 24 31
7 84 23 116 37 33 13 61 23 62 22 1 -1 -4 -49 -12 -107 -29 -220 -14 -430 37
-537 17 -36 70 -83 93 -83 3 0 6 22 6 50 l0 50 50 -36 c62 -45 153 -74 229
-74 258 0 577 257 776 626 l39 72 69 5 c145 10 301 119 402 282 85 136 100
249 32 231 -19 -4 -40 -30 -81 -99 -75 -128 -124 -187 -191 -232 -58 -38 -170
-83 -181 -72 -3 3 3 34 15 69 35 106 70 268 81 371 8 80 7 112 -6 175 -30 146
-112 277 -189 302 -56 19 -262 -25 -397 -84 -21 -9 -38 -14 -38 -11 0 3 33 50
73 103 310 410 536 848 587 1137 18 105 9 258 -19 320 -51 115 -138 159 -242
120z m81 -424 c0 -42 -37 -203 -65 -287 -59 -176 -188 -428 -332 -648 -71
-109 -241 -338 -297 -401 l-36 -40 17 45 c67 181 293 690 409 923 184 368 254
476 290 446 8 -6 14 -23 14 -38z m-1760 -1596 c0 -3 -9 -23 -19 -43 -10 -20
-29 -70 -41 -110 -47 -153 -11 -295 99 -393 l55 -49 -23 -57 c-37 -91 -109
-222 -163 -295 -138 -187 -322 -277 -451 -220 -152 67 -166 365 -31 635 119
237 266 391 469 492 89 44 105 50 105 40z m1422 -67 c-47 -142 -17 -297 80
-403 l51 -56 -28 -72 c-103 -267 -261 -479 -416 -556 -116 -58 -246 -36 -310
52 -102 141 -91 415 26 651 85 170 215 305 368 382 66 34 189 72 233 73 20 1
20 1 -4 -71z m188 -177 c-7 -52 -16 -104 -20 -115 -7 -18 -11 -15 -30 28 -38
83 -17 219 44 295 17 21 20 -93 6 -208z m-1424 78 c-8 -102 -33 -250 -45 -262
-5 -5 -16 9 -26 30 -24 49 -23 134 1 193 18 46 66 130 73 130 2 0 1 -41 -3
-91z"/>
</g>
</svg>
